<?xml version="1.0" standalone="no"?>
<!DOCTYPE svg PUBLIC "-//W3C//DTD SVG 20010904//EN"
 "http://www.w3.org/TR/2001/REC-SVG-20010904/DTD/svg10.dtd">
<svg version="1.0" xmlns="http://www.w3.org/2000/svg"
 width="345.000000pt" height="345.000000pt" viewBox="0 0 345.000000 345.000000"
 preserveAspectRatio="xMidYMid meet">
<metadata>
Created by potrace 1.14, written by Peter Selinger 2001-2017
</metadata>
<g transform="translate(0.000000,345.000000) scale(0.100000,-0.100000)"
fill="#000000" stroke="none">
<path d="M3125 3038 c-269 -138 -559 -230 -922 -293 -283 -49 -391 -84 -506
-164 -69 -48 -257 -252 -257 -280 0 -3 46 40 103 95 146 144 268 225 377 252
25 6 106 19 180 28 396 47 637 117 961 280 65 32 109 49 109 42 0 -22 -56
-132 -106 -209 -28 -44 -100 -127 -178 -204 -203 -202 -367 -306 -781 -495
-110 -51 -204 -96 -210 -101 -15 -15 129 37 275 98 592 249 954 550 1035 860
16 61 20 133 8 133 -5 -1 -44 -19 -88 -42z"/>
<path d="M972 2901 c-97 -36 -176 -109 -255 -237 -21 -34 -38 -46 -94 -68
-164 -65 -463 -236 -477 -272 -7 -19 -9 -19 123 25 160 54 268 75 386 76 91 0
104 -2 147 -27 109 -65 190 -211 333 -603 100 -276 202 -434 357 -553 367
-282 624 -592 688 -831 19 -70 23 -40 10 81 -20 199 -80 463 -149 661 -54 153
-161 390 -161 355 0 -16 55 -193 85 -273 18 -49 40 -118 49 -151 22 -84 57
-296 51 -302 -3 -3 -69 57 -148 134 -150 148 -287 273 -402 368 -138 116 -178
189 -301 563 -154 464 -236 605 -400 683 l-54 25 30 64 c36 75 125 167 196
202 55 27 148 32 219 11 96 -28 203 -113 288 -232 10 -14 5 0 -10 29 -42 82
-173 211 -255 251 -88 42 -178 50 -256 21z"/>
<path d="M2650 2210 c87 -41 221 -86 325 -107 47 -10 85 -21 85 -24 0 -9 -127
-62 -211 -87 -121 -37 -341 -63 -669 -79 -210 -10 -135 -21 145 -22 316 -1
495 28 663 109 75 36 162 95 162 109 0 4 -45 15 -100 24 -54 10 -170 36 -257
57 -87 22 -169 42 -183 45 -14 3 4 -8 40 -25z"/>
</g>
</svg>
